<svg width="24.000000" height="24.000000" viewBox="0 0 24 24" fill="none" xmlns="http://www.w3.org/2000/svg" xmlns:xlink="http://www.w3.org/1999/xlink">
	<desc>
			Created with Pixso.
	</desc>
	<defs/>
	<circle id="Ellipse 15" cx="11.500000" cy="12.000000" r="12.000000" fill="#E7426A" fill-opacity="1.000000"/>
	<path id="%" d="M6.72 10.69Q7.28 10.94 8.03 10.94Q8.79 10.94 9.33 10.7Q9.48 10.64 9.61 10.55Q9.95 10.3 10.17 9.87Q10.46 9.28 10.46 8.24Q10.46 7.19 10.17 6.61Q9.96 6.19 9.63 5.94Q9.49 5.84 9.33 5.77Q8.79 5.53 8.03 5.53Q7.28 5.53 6.72 5.77Q6.54 5.85 6.39 5.97Q6.07 6.21 5.88 6.61Q5.59 7.19 5.59 8.24Q5.59 9.28 5.88 9.86Q6.07 10.25 6.38 10.48Q6.53 10.61 6.72 10.69ZM14.57 5.7L7.04 16L8.47 16L16.02 5.7L14.57 5.7ZM8.72 9.6Q8.49 9.83 8.03 9.83Q7.59 9.83 7.36 9.61Q7.28 9.53 7.23 9.43Q7.03 9.02 7.03 8.33L7.03 8.14Q7.03 7.46 7.23 7.05Q7.28 6.93 7.37 6.85Q7.59 6.63 8.03 6.63Q8.44 6.63 8.65 6.83Q8.67 6.84 8.68 6.85Q8.88 7.03 8.95 7.35Q9.04 7.69 9.04 8.14L9.04 8.33Q9.04 9.02 8.84 9.43Q8.79 9.52 8.72 9.6ZM13.69 15.93Q14.24 16.17 14.99 16.17Q15.76 16.17 16.3 15.94Q16.48 15.86 16.62 15.75Q16.94 15.51 17.13 15.1Q17.42 14.51 17.42 13.48Q17.42 12.42 17.13 11.84Q16.95 11.46 16.64 11.22Q16.49 11.09 16.3 11.01Q15.76 10.76 14.99 10.76Q14.24 10.76 13.69 11.01Q13.52 11.08 13.38 11.19Q13.06 11.43 12.85 11.84Q12.56 12.42 12.56 13.48Q12.56 14.51 12.85 15.09Q13.06 15.5 13.38 15.75Q13.52 15.85 13.69 15.93ZM15.68 14.83Q15.45 15.06 14.99 15.06Q14.55 15.06 14.33 14.85Q14.25 14.76 14.19 14.65Q14 14.24 14 13.55L14 13.37Q14 12.7 14.19 12.29Q14.25 12.17 14.33 12.09Q14.56 11.87 14.99 11.87Q15.41 11.87 15.62 12.06Q15.83 12.25 15.91 12.58Q15.99 12.92 15.99 13.37L15.99 13.55Q15.99 14.24 15.8 14.65Q15.75 14.76 15.68 14.83Z" fill="#FFFFFF" fill-opacity="1.000000" fill-rule="evenodd"/>
</svg>
