<svg width="95.000000" height="16.000000" viewBox="0 0 95 16" fill="none" xmlns="http://www.w3.org/2000/svg" xmlns:xlink="http://www.w3.org/1999/xlink">
	<desc>
			Created with Pixso.
	</desc>
	<defs/>
	<path id="Cookbook" d="M43.88 12.51L41.21 8.56L42.62 6.98Q43.4 6.09 44.07 5.6Q44.69 5.15 45.33 5.11Q45.38 5.11 45.43 5.11L45.43 4.27L41.02 4.27L41.02 5.11Q41.52 5.11 41.76 5.19Q41.87 5.22 41.93 5.3Q41.99 5.38 41.99 5.51Q41.99 5.66 41.95 5.82Q41.9 5.98 41.77 6.19Q41.64 6.39 41.43 6.66Q41.22 6.94 40.9 7.3L38.4 10.03Q38.42 9.52 38.44 9.05Q38.46 8.64 38.47 8.21Q38.48 7.79 38.48 7.51L38.48 -0.2L34.8 -0.2L34.8 0.64L34.95 0.64Q35.29 0.64 35.58 0.68Q35.88 0.73 36.11 0.87Q36.13 0.89 36.16 0.91Q36.35 1.05 36.46 1.29Q36.59 1.56 36.59 2L36.59 12.72Q36.59 13.19 36.46 13.47Q36.33 13.75 36.11 13.91Q35.89 14.06 35.59 14.11Q35.3 14.16 34.95 14.16L34.8 14.16L34.8 15L40.18 15L40.18 14.16L40.12 14.16Q39.79 14.16 39.49 14.11Q39.19 14.07 38.97 13.93Q38.94 13.92 38.92 13.9Q38.73 13.76 38.61 13.53Q38.48 13.26 38.48 12.82L38.48 11.01L39.95 9.92L41.96 13.05Q42.38 13.72 42.72 14.1Q43.06 14.49 43.47 14.69Q43.88 14.89 44.44 14.94Q45 15 45.87 15L46.16 15L46.16 14.16L46.1 14.16Q45.73 14.16 45.42 14.03Q45.15 13.93 44.91 13.74Q44.4 13.32 43.88 12.51ZM57.41 12.11Q57.68 11.06 57.68 9.61Q57.68 8.18 57.41 7.13Q57.14 6.09 56.62 5.41Q56.31 4.99 55.9 4.71Q55.64 4.53 55.34 4.4Q54.58 4.08 53.6 4.08Q53.01 4.08 52.54 4.22Q52.07 4.36 51.7 4.62Q51.64 4.66 51.57 4.71Q51.28 4.94 51.05 5.25Q50.76 5.62 50.54 6.08L50.46 6.08Q50.48 5.58 50.5 5.11Q50.52 4.7 50.53 4.26Q50.54 3.81 50.54 3.47L50.54 -0.2L46.86 -0.2L46.86 0.64L47.01 0.64Q47.35 0.64 47.64 0.68Q47.94 0.73 48.17 0.87Q48.19 0.89 48.22 0.91Q48.41 1.05 48.52 1.29Q48.65 1.56 48.65 2L48.65 12.72Q48.65 13.19 48.52 13.47Q48.39 13.75 48.17 13.91Q47.95 14.06 47.65 14.11Q47.35 14.16 47.01 14.16L46.86 14.16L46.86 15L50.06 15L50.41 13.43L50.54 13.43Q50.75 13.82 51.04 14.15Q51.1 14.21 51.16 14.27Q51.4 14.51 51.71 14.7Q52.08 14.94 52.55 15.06Q53.02 15.19 53.6 15.19Q54.58 15.19 55.34 14.86Q55.63 14.74 55.88 14.57Q56.3 14.28 56.62 13.85Q57.14 13.17 57.41 12.11ZM92.38 12.51L89.71 8.56L91.12 6.98Q91.9 6.09 92.57 5.6Q93.19 5.15 93.83 5.11Q93.88 5.11 93.93 5.11L93.93 4.27L89.52 4.27L89.52 5.11Q90.02 5.11 90.26 5.19Q90.37 5.22 90.43 5.3Q90.5 5.38 90.5 5.51Q90.5 5.66 90.45 5.82Q90.4 5.98 90.27 6.19Q90.14 6.39 89.93 6.66Q89.72 6.94 89.4 7.3L86.9 10.03Q86.92 9.52 86.94 9.05Q86.96 8.64 86.97 8.21Q86.98 7.79 86.98 7.51L86.98 -0.2L83.3 -0.2L83.3 0.64L83.45 0.64Q83.79 0.64 84.08 0.68Q84.38 0.73 84.61 0.87Q84.64 0.89 84.66 0.91Q84.85 1.05 84.96 1.29Q85.1 1.56 85.1 2L85.1 12.72Q85.1 13.19 84.96 13.47Q84.83 13.75 84.61 13.91Q84.39 14.06 84.09 14.11Q83.8 14.16 83.45 14.16L83.3 14.16L83.3 15L88.68 15L88.68 14.16L88.62 14.16Q88.29 14.16 87.99 14.11Q87.69 14.07 87.47 13.93Q87.44 13.92 87.42 13.9Q87.23 13.76 87.11 13.53Q86.98 13.26 86.98 12.82L86.98 11.01L88.45 9.92L90.46 13.05Q90.88 13.72 91.22 14.1Q91.56 14.49 91.97 14.69Q92.38 14.89 92.94 14.94Q93.5 15 94.37 15L94.66 15L94.66 14.16L94.6 14.16Q94.24 14.16 93.92 14.03Q93.65 13.93 93.41 13.74Q92.9 13.32 92.38 12.51ZM7.34 0.68Q6.58 0.51 5.55 0.51Q3.97 0.51 2.77 1.05Q1.91 1.43 1.25 2.04Q0.99 2.28 0.76 2.55Q-0.04 3.52 -0.45 4.87Q-0.86 6.22 -0.86 7.84Q-0.86 9.49 -0.47 10.84Q-0.08 12.2 0.69 13.17Q1.02 13.59 1.43 13.94Q1.95 14.37 2.58 14.66Q3.72 15.19 5.21 15.19Q6.33 15.19 7.14 14.98Q7.95 14.77 8.47 14.45Q9 14.13 9.26 13.73Q9.52 13.33 9.52 12.95Q9.52 12.65 9.41 12.47Q9.32 12.31 9.18 12.2Q9.16 12.19 9.14 12.17Q8.88 12.5 8.56 12.81Q8.23 13.12 7.8 13.35Q7.37 13.59 6.81 13.73Q6.25 13.87 5.51 13.87Q4.41 13.87 3.62 13.43Q3.39 13.3 3.17 13.13Q2.68 12.75 2.33 12.2Q1.82 11.4 1.59 10.29Q1.35 9.17 1.35 7.84Q1.35 6.33 1.58 5.17Q1.8 4 2.3 3.2Q2.64 2.66 3.12 2.3Q3.34 2.12 3.59 1.99Q4.38 1.58 5.51 1.58Q6.17 1.58 6.61 1.81Q7.02 2.02 7.29 2.34Q7.31 2.37 7.34 2.4Q7.42 2.51 7.48 2.62Q7.65 2.9 7.74 3.23Q7.82 3.55 7.85 3.87Q7.86 4.01 7.86 4.16Q8.23 4.16 8.55 4.06Q8.86 3.96 9.1 3.78Q9.24 3.67 9.34 3.54Q9.41 3.44 9.46 3.34Q9.47 3.33 9.48 3.32Q9.6 3.07 9.6 2.76Q9.6 2.52 9.54 2.31Q9.47 2.08 9.35 1.87Q9.1 1.46 8.6 1.16Q8.09 0.85 7.34 0.68ZM19.87 13.81Q21.07 12.44 21.07 9.61Q21.07 8.21 20.75 7.17Q20.44 6.13 19.83 5.44Q19.56 5.13 19.24 4.89Q18.84 4.6 18.37 4.41Q17.52 4.08 16.43 4.08Q14.49 4.08 13.34 5.03Q13.12 5.22 12.92 5.44Q11.73 6.81 11.73 9.61Q11.73 11.02 12.05 12.07Q12.37 13.12 12.97 13.81Q13.25 14.13 13.58 14.38Q13.97 14.67 14.43 14.85Q15.29 15.19 16.37 15.19Q18.26 15.19 19.4 14.27Q19.66 14.06 19.87 13.81ZM31.78 13.81Q32.97 12.44 32.97 9.61Q32.97 8.21 32.66 7.17Q32.34 6.13 31.74 5.44Q31.46 5.13 31.14 4.89Q30.75 4.6 30.28 4.41Q29.42 4.08 28.33 4.08Q26.39 4.08 25.24 5.03Q25.02 5.22 24.82 5.44Q23.64 6.81 23.64 9.61Q23.64 11.02 23.95 12.07Q24.27 13.12 24.87 13.81Q25.15 14.13 25.48 14.38Q25.87 14.67 26.33 14.85Q27.19 15.19 28.28 15.19Q30.16 15.19 31.3 14.27Q31.56 14.06 31.78 13.81ZM68.37 13.81Q69.57 12.44 69.57 9.61Q69.57 8.21 69.25 7.17Q68.94 6.13 68.33 5.44Q68.06 5.13 67.74 4.89Q67.34 4.6 66.88 4.41Q66.02 4.08 64.93 4.08Q62.99 4.08 61.84 5.03Q61.62 5.22 61.42 5.44Q60.23 6.81 60.23 9.61Q60.23 11.02 60.55 12.07Q60.87 13.12 61.47 13.81Q61.75 14.13 62.08 14.38Q62.47 14.67 62.93 14.85Q63.79 15.19 64.87 15.19Q66.76 15.19 67.9 14.27Q68.16 14.06 68.37 13.81ZM80.28 13.81Q81.47 12.44 81.47 9.61Q81.47 8.21 81.16 7.17Q80.84 6.13 80.24 5.44Q79.97 5.13 79.64 4.89Q79.25 4.6 78.78 4.41Q77.92 4.08 76.83 4.08Q74.89 4.08 73.74 5.03Q73.52 5.22 73.32 5.44Q72.14 6.81 72.14 9.61Q72.14 11.02 72.45 12.07Q72.77 13.12 73.37 13.81Q73.65 14.13 73.99 14.38Q74.37 14.67 74.83 14.85Q75.69 15.19 76.78 15.19Q78.66 15.19 79.8 14.27Q80.06 14.06 80.28 13.81ZM13.81 11.58Q13.67 10.73 13.67 9.61Q13.67 8.5 13.81 7.66Q13.96 6.82 14.28 6.26Q14.54 5.81 14.93 5.53Q15.02 5.47 15.12 5.41Q15.64 5.13 16.39 5.13Q17.14 5.13 17.67 5.41Q17.78 5.48 17.89 5.55Q18.26 5.82 18.51 6.26Q18.83 6.82 18.98 7.66Q19.13 8.5 19.13 9.61Q19.13 10.73 18.98 11.58Q18.84 12.43 18.52 13Q18.25 13.47 17.85 13.76Q17.77 13.81 17.68 13.86Q17.16 14.16 16.41 14.16Q15.66 14.16 15.14 13.86Q15.04 13.81 14.96 13.75Q14.56 13.47 14.29 13Q13.96 12.43 13.81 11.58ZM25.72 11.58Q25.57 10.73 25.57 9.61Q25.57 8.5 25.72 7.66Q25.86 6.82 26.19 6.26Q26.45 5.81 26.83 5.53Q26.93 5.47 27.03 5.41Q27.54 5.13 28.3 5.13Q29.05 5.13 29.57 5.41Q29.68 5.48 29.79 5.55Q30.16 5.82 30.41 6.26Q30.74 6.82 30.88 7.66Q31.03 8.5 31.03 9.61Q31.03 10.73 30.89 11.58Q30.75 12.43 30.42 13Q30.16 13.47 29.75 13.76Q29.67 13.81 29.58 13.86Q29.07 14.16 28.31 14.16Q27.56 14.16 27.04 13.86Q26.95 13.81 26.86 13.75Q26.46 13.47 26.19 13Q25.86 12.43 25.72 11.58ZM62.31 11.58Q62.17 10.73 62.17 9.61Q62.17 8.5 62.31 7.66Q62.46 6.82 62.78 6.26Q63.04 5.81 63.43 5.53Q63.52 5.47 63.62 5.41Q64.14 5.13 64.89 5.13Q65.64 5.13 66.17 5.41Q66.28 5.48 66.39 5.55Q66.76 5.82 67.01 6.26Q67.33 6.82 67.48 7.66Q67.63 8.5 67.63 9.61Q67.63 10.73 67.49 11.58Q67.34 12.43 67.02 13Q66.75 13.47 66.35 13.76Q66.27 13.81 66.18 13.86Q65.66 14.16 64.91 14.16Q64.16 14.16 63.64 13.86Q63.55 13.81 63.46 13.75Q63.06 13.47 62.79 13Q62.46 12.43 62.31 11.58ZM74.22 11.58Q74.07 10.73 74.07 9.61Q74.07 8.5 74.22 7.66Q74.36 6.82 74.69 6.26Q74.95 5.81 75.33 5.53Q75.43 5.47 75.53 5.41Q76.04 5.13 76.8 5.13Q77.55 5.13 78.07 5.41Q78.18 5.48 78.29 5.55Q78.66 5.82 78.91 6.26Q79.24 6.82 79.38 7.66Q79.53 8.5 79.53 9.61Q79.53 10.73 79.39 11.58Q79.25 12.43 78.92 13Q78.66 13.47 78.25 13.76Q78.17 13.81 78.08 13.86Q77.57 14.16 76.82 14.16Q76.06 14.16 75.54 13.86Q75.45 13.81 75.36 13.75Q74.96 13.47 74.69 13Q74.36 12.43 74.22 11.58ZM51.95 5.62Q52.47 5.36 53.25 5.36Q53.92 5.36 54.39 5.62Q54.46 5.66 54.52 5.7Q54.91 5.96 55.16 6.41Q55.46 6.94 55.6 7.73Q55.73 8.53 55.73 9.59Q55.73 10.65 55.6 11.46Q55.46 12.26 55.16 12.81Q54.87 13.34 54.42 13.62Q54.41 13.63 54.4 13.63Q53.94 13.91 53.27 13.91Q52.48 13.91 51.96 13.63Q51.81 13.55 51.68 13.45Q51.35 13.2 51.12 12.81Q50.8 12.26 50.67 11.46Q50.54 10.66 50.54 9.61Q50.54 8.53 50.67 7.73Q50.8 6.93 51.11 6.4Q51.32 6.06 51.61 5.83Q51.77 5.7 51.95 5.62Z" fill="#2A1804" fill-opacity="1.000000" fill-rule="evenodd"/>
</svg>
