<svg width="69.000000" height="19.000000" viewBox="0 0 69 19" fill="none" xmlns="http://www.w3.org/2000/svg" xmlns:xlink="http://www.w3.org/1999/xlink">
	<desc>
			Created with Pixso.
	</desc>
	<defs/>
	<path id="Recipes" d="M34.11 0.17Q34.03 0.39 34.03 0.73Q34.03 1.06 34.11 1.29Q34.2 1.51 34.35 1.65Q34.42 1.71 34.5 1.76Q34.59 1.82 34.69 1.85Q34.88 1.91 35.12 1.91Q35.34 1.91 35.53 1.85Q35.65 1.81 35.74 1.75Q35.81 1.7 35.87 1.65Q36.02 1.51 36.1 1.29Q36.19 1.06 36.19 0.73Q36.19 0.39 36.1 0.17Q36.02 -0.05 35.87 -0.19Q35.81 -0.25 35.73 -0.3Q35.64 -0.35 35.53 -0.38Q35.34 -0.44 35.12 -0.44Q34.88 -0.44 34.69 -0.38Q34.59 -0.36 34.51 -0.31Q34.42 -0.26 34.35 -0.19Q34.2 -0.05 34.11 0.17ZM10.46 12.82Q10.01 12.44 9.52 11.68L6.92 7.56Q7.42 7.39 7.92 7.11Q8.13 7 8.32 6.86Q8.59 6.66 8.82 6.42Q9.22 6 9.46 5.43Q9.71 4.86 9.71 4.1Q9.71 2.75 9.06 1.89Q8.82 1.59 8.5 1.35Q7.3 0.43 4.83 0.43L-0.28 0.43L-0.28 1.23L-0.04 1.23Q0.28 1.23 0.56 1.27Q0.84 1.31 1.05 1.45Q1.08 1.47 1.11 1.49Q1.28 1.62 1.39 1.85Q1.52 2.1 1.52 2.52L1.52 11.93Q1.52 12.34 1.39 12.6Q1.28 12.83 1.1 12.95Q1.08 12.97 1.05 12.98Q0.84 13.11 0.56 13.16Q0.28 13.2 -0.04 13.2L-0.28 13.2L-0.28 14L5.25 14L5.25 13.2L5 13.2Q4.68 13.2 4.4 13.16Q4.12 13.11 3.9 12.98Q3.88 12.97 3.86 12.95Q3.68 12.83 3.56 12.6Q3.44 12.34 3.44 11.93L3.44 8.01L5.02 8.01L7.59 12.29Q7.91 12.83 8.19 13.16Q8.33 13.32 8.49 13.44Q8.66 13.58 8.88 13.68Q9.27 13.87 9.84 13.93Q10.42 14 11.31 14L11.58 14L11.58 13.2L11.52 13.2Q11.2 13.2 10.91 13.09Q10.67 12.99 10.46 12.82ZM4.77 7.12L3.44 7.12L3.44 1.34L4.73 1.34Q5.54 1.34 6.1 1.49Q6.66 1.65 7.01 1.99Q7.02 2 7.04 2.01Q7.37 2.34 7.52 2.86Q7.68 3.39 7.68 4.15Q7.68 4.89 7.53 5.45Q7.39 6.01 7.06 6.38Q6.72 6.75 6.17 6.93Q5.61 7.12 4.77 7.12ZM15.42 13.83Q16.24 14.18 17.27 14.18Q18.11 14.18 18.74 14Q19.37 13.81 19.78 13.53Q20.2 13.25 20.41 12.92Q20.61 12.59 20.61 12.31Q20.61 12.09 20.52 11.93Q20.51 11.91 20.49 11.89Q20.38 11.71 20.25 11.66Q20.08 11.92 19.82 12.15Q19.55 12.39 19.21 12.58Q18.87 12.76 18.44 12.87Q18.02 12.98 17.53 12.98Q16.85 12.98 16.33 12.76Q16.18 12.69 16.05 12.6Q15.71 12.39 15.46 12.05Q15.1 11.56 14.91 10.82Q14.72 10.07 14.7 9.03L21.03 9.03L21.03 8.16Q21.03 7.04 20.75 6.19Q20.48 5.34 19.97 4.77Q19.78 4.56 19.56 4.39Q19.19 4.09 18.73 3.91Q17.99 3.62 17.07 3.62Q15.65 3.62 14.69 4.29Q14.28 4.57 13.96 4.97Q12.86 6.31 12.86 8.98Q12.86 10.21 13.16 11.18Q13.47 12.15 14.03 12.82Q14.27 13.09 14.54 13.32Q14.94 13.63 15.42 13.83ZM25.98 13.89Q26.78 14.18 27.72 14.18Q28.53 14.18 29.13 14.02Q29.74 13.86 30.14 13.6Q30.54 13.34 30.75 13.01Q30.95 12.69 30.95 12.36Q30.95 12.1 30.86 11.92Q30.77 11.73 30.63 11.62Q30.59 11.68 30.56 11.74Q30.23 12.24 29.64 12.58Q28.99 12.95 28.1 12.95Q26.94 12.95 26.27 12.37Q26.06 12.19 25.9 11.95Q25.23 10.96 25.23 8.94Q25.23 7.67 25.39 6.82Q25.56 5.98 25.88 5.48Q26.19 4.98 26.63 4.77Q27.07 4.57 27.62 4.57Q28.1 4.57 28.41 4.74Q28.58 4.83 28.71 4.96Q28.82 5.07 28.91 5.21Q29.09 5.52 29.16 5.91Q29.24 6.31 29.24 6.76Q30.08 6.76 30.51 6.49Q30.61 6.43 30.68 6.34Q30.93 6.07 30.93 5.56Q30.93 5.27 30.83 5.02Q30.76 4.85 30.64 4.7Q30.34 4.34 29.87 4.1Q29.39 3.85 28.8 3.74Q28.34 3.65 27.86 3.63Q27.74 3.62 27.62 3.62Q26.72 3.62 25.95 3.88Q25.66 3.98 25.4 4.13Q24.96 4.37 24.6 4.76Q24.03 5.39 23.71 6.41Q23.39 7.44 23.39 8.96Q23.39 10.36 23.71 11.35Q24.03 12.33 24.61 12.97Q24.91 13.29 25.27 13.53Q25.6 13.75 25.98 13.89ZM48.86 11.26Q49.11 10.26 49.11 8.88Q49.11 7.52 48.86 6.53Q48.6 5.53 48.11 4.89Q47.81 4.49 47.42 4.22Q47.18 4.05 46.9 3.93Q46.17 3.62 45.24 3.62Q44.68 3.62 44.23 3.76Q43.79 3.89 43.44 4.14Q43.37 4.18 43.31 4.23Q43.04 4.45 42.81 4.74Q42.54 5.09 42.33 5.52L42.26 5.52L42.06 3.81L38.74 3.81L38.74 4.61L38.98 4.61Q39.3 4.61 39.58 4.65Q39.86 4.7 40.08 4.84Q40.1 4.86 40.13 4.88Q40.31 5.01 40.42 5.23Q40.54 5.49 40.54 5.91L40.54 16.39Q40.54 16.83 40.42 17.11Q40.29 17.38 40.08 17.53Q39.87 17.67 39.59 17.72Q39.31 17.76 38.98 17.76L38.83 17.76L38.83 18.56L43.95 18.56L43.95 17.76L43.89 17.76Q43.57 17.76 43.29 17.72Q43.01 17.68 42.8 17.54Q42.77 17.53 42.75 17.51Q42.57 17.38 42.46 17.15Q42.33 16.9 42.33 16.48L42.33 14.66Q42.33 14.59 42.33 14.45Q42.32 14.32 42.32 14.15Q42.31 13.99 42.31 13.8Q42.3 13.61 42.29 13.43Q42.28 13 42.26 12.51L42.33 12.51Q42.54 12.88 42.81 13.19Q42.86 13.25 42.92 13.3Q43.15 13.54 43.44 13.72Q43.8 13.94 44.24 14.06Q44.69 14.18 45.24 14.18Q46.17 14.18 46.9 13.87Q47.16 13.75 47.4 13.59Q47.8 13.32 48.11 12.91Q48.6 12.26 48.86 11.26ZM54.12 13.83Q54.94 14.18 55.97 14.18Q56.81 14.18 57.44 14Q58.06 13.81 58.48 13.53Q58.9 13.25 59.1 12.92Q59.31 12.59 59.31 12.31Q59.31 12.09 59.22 11.93Q59.2 11.91 59.19 11.89Q59.08 11.71 58.95 11.66Q58.78 11.92 58.51 12.15Q58.25 12.39 57.91 12.58Q57.56 12.76 57.14 12.87Q56.72 12.98 56.23 12.98Q55.55 12.98 55.03 12.76Q54.88 12.69 54.74 12.6Q54.41 12.39 54.15 12.05Q53.8 11.56 53.61 10.82Q53.42 10.07 53.4 9.03L59.72 9.03L59.72 8.16Q59.72 7.04 59.45 6.19Q59.18 5.34 58.67 4.77Q58.48 4.56 58.26 4.39Q57.89 4.09 57.42 3.91Q56.69 3.62 55.77 3.62Q54.35 3.62 53.39 4.29Q52.98 4.57 52.66 4.97Q51.56 6.31 51.56 8.98Q51.56 10.21 51.86 11.18Q52.16 12.15 52.73 12.82Q52.96 13.09 53.24 13.32Q53.64 13.63 54.12 13.83ZM63.74 14.06Q64.32 14.18 65.03 14.18Q65.87 14.18 66.56 14Q67.26 13.81 67.75 13.43Q68 13.24 68.19 13.01Q68.38 12.78 68.51 12.5Q68.78 11.94 68.78 11.2Q68.78 10.61 68.61 10.15Q68.56 10.02 68.5 9.9Q68.34 9.59 68.1 9.34Q67.75 8.98 67.21 8.67Q66.67 8.36 65.92 8.05Q65.29 7.79 64.84 7.58Q64.39 7.37 64.11 7.15Q63.82 6.93 63.69 6.66Q63.56 6.4 63.56 6.04Q63.56 5.7 63.67 5.42Q63.71 5.29 63.79 5.18Q63.87 5.05 63.99 4.94Q64.2 4.74 64.55 4.62Q64.89 4.51 65.37 4.51Q66.04 4.51 66.42 4.84Q66.53 4.93 66.61 5.04Q67.01 5.57 67.01 6.53Q67.66 6.53 68.02 6.22Q68.15 6.1 68.24 5.96Q68.38 5.71 68.38 5.39Q68.38 5.26 68.36 5.14Q68.32 4.92 68.2 4.71Q68.03 4.39 67.67 4.16Q67.32 3.92 66.8 3.78Q66.28 3.64 65.6 3.64Q64.8 3.64 64.14 3.82Q63.48 3.99 63.01 4.33Q62.7 4.55 62.48 4.84Q62.37 5 62.28 5.17Q62.02 5.67 62.02 6.32Q62.02 6.94 62.2 7.39Q62.26 7.54 62.33 7.67Q62.49 7.96 62.73 8.2Q63.08 8.55 63.62 8.85Q64.17 9.15 64.9 9.48Q65.59 9.77 66.04 10.01Q66.5 10.24 66.76 10.46Q67.02 10.68 67.13 10.94Q67.24 11.19 67.24 11.55Q67.24 11.93 67.1 12.24L67.1 12.25Q67.03 12.41 66.93 12.55Q66.83 12.68 66.69 12.79Q66.43 13.02 66.04 13.15Q65.65 13.27 65.14 13.27Q64.57 13.27 64.17 13.08Q63.86 12.93 63.64 12.69Q63.59 12.63 63.54 12.56Q63.29 12.23 63.19 11.8Q63.09 11.36 63.09 10.86Q62.92 10.86 62.71 10.92Q62.7 10.92 62.69 10.93Q62.5 10.99 62.33 11.13Q62.14 11.28 62.02 11.53Q61.89 11.79 61.89 12.17Q61.89 12.65 62.1 13.01Q62.11 13.03 62.12 13.04Q62.13 13.07 62.15 13.1Q62.37 13.44 62.75 13.67Q63.16 13.93 63.74 14.06ZM33.34 13.16Q33.06 13.2 32.74 13.2L32.49 13.2L32.49 14L37.89 14L37.89 13.2L37.64 13.2Q37.32 13.2 37.04 13.15Q36.75 13.1 36.54 12.96Q36.33 12.82 36.21 12.55Q36.08 12.28 36.08 11.83L36.08 3.81L32.68 3.81L32.68 4.61L32.74 4.61Q33.06 4.61 33.34 4.65Q33.62 4.7 33.84 4.84Q33.86 4.86 33.89 4.88Q34.06 5.01 34.17 5.23Q34.3 5.49 34.3 5.91L34.3 11.93Q34.3 12.34 34.17 12.6Q34.06 12.83 33.88 12.95Q33.86 12.97 33.84 12.98Q33.62 13.11 33.34 13.16ZM16.05 4.88Q16.48 4.64 17.04 4.64Q17.61 4.64 18.01 4.88Q18.07 4.93 18.14 4.97Q18.44 5.2 18.64 5.57Q18.88 6.02 19 6.64Q19.11 7.26 19.11 8.01L14.74 8.01Q14.84 6.36 15.41 5.5Q15.68 5.1 16.05 4.88ZM54.75 4.88Q55.18 4.64 55.74 4.64Q56.31 4.64 56.7 4.88Q56.77 4.93 56.84 4.97Q57.14 5.2 57.34 5.57Q57.58 6.02 57.69 6.64Q57.8 7.26 57.8 8.01L53.43 8.01Q53.54 6.36 54.11 5.5Q54.38 5.1 54.75 4.88ZM43.67 5.08Q44.17 4.84 44.91 4.84Q45.54 4.84 45.99 5.09Q46.05 5.12 46.11 5.16Q46.48 5.41 46.72 5.84Q47.01 6.34 47.14 7.1Q47.27 7.85 47.27 8.86Q47.27 9.87 47.14 10.63Q47.01 11.4 46.72 11.92Q46.45 12.42 46.02 12.69Q46.01 12.69 46 12.7Q45.56 12.97 44.93 12.97Q44.18 12.97 43.68 12.7Q43.54 12.63 43.42 12.53Q43.1 12.29 42.88 11.92Q42.58 11.4 42.46 10.64Q42.33 9.88 42.33 8.88Q42.33 7.85 42.46 7.09Q42.58 6.33 42.88 5.83Q43.07 5.5 43.35 5.28Q43.5 5.17 43.67 5.08Z" fill="#2A1804" fill-opacity="1.000000" fill-rule="evenodd"/>
</svg>
