<svg width="47.000000" height="20.000000" viewBox="0 0 47 20" fill="none" xmlns="http://www.w3.org/2000/svg" xmlns:xlink="http://www.w3.org/1999/xlink">
	<desc>
			Created with Pixso.
	</desc>
	<defs/>
	<path id="Shop" d="M15.98 15L15.98 14.16L15.92 14.16Q15.59 14.16 15.29 14.11Q14.99 14.07 14.77 13.93Q14.74 13.92 14.72 13.9Q14.53 13.76 14.41 13.53Q14.28 13.26 14.28 12.82L14.28 8.6Q14.28 7.87 14.42 7.27Q14.57 6.66 14.87 6.24Q15.04 5.99 15.27 5.81Q15.43 5.68 15.62 5.59Q16.07 5.36 16.7 5.36Q17.3 5.36 17.72 5.54Q18 5.66 18.21 5.85Q18.32 5.95 18.4 6.07Q18.66 6.42 18.78 6.93Q18.9 7.44 18.9 8.09L18.9 15L22.37 15L22.37 14.16L22.31 14.16Q21.98 14.16 21.7 14.11Q21.42 14.06 21.21 13.91Q21.01 13.75 20.89 13.47Q20.77 13.19 20.77 12.72L20.77 7.99Q20.77 6.97 20.54 6.23Q20.3 5.48 19.85 5.01Q19.76 4.91 19.66 4.83Q19.27 4.49 18.74 4.31Q18.09 4.08 17.24 4.08Q16.2 4.08 15.46 4.54Q14.74 5 14.3 5.89L14.2 5.89Q14.22 5.61 14.24 5.32Q14.26 5.06 14.27 4.77Q14.28 4.47 14.28 4.19L14.28 -0.2L10.6 -0.2L10.6 0.64L10.75 0.64Q11.08 0.64 11.38 0.68Q11.68 0.73 11.9 0.87Q11.93 0.89 11.96 0.91Q12.15 1.05 12.26 1.29Q12.39 1.56 12.39 2L12.39 12.72Q12.39 13.19 12.26 13.47Q12.13 13.75 11.91 13.91Q11.69 14.06 11.39 14.11Q11.09 14.16 10.75 14.16L10.6 14.16L10.6 15L15.98 15ZM2.21 14.99Q2.96 15.19 3.94 15.19Q5.06 15.19 5.97 14.92Q6.88 14.65 7.52 14.14Q7.85 13.87 8.11 13.54Q8.34 13.23 8.51 12.87Q8.86 12.12 8.86 11.18Q8.86 10.41 8.6 9.79Q8.55 9.66 8.48 9.53Q8.24 9.07 7.87 8.69Q7.39 8.2 6.7 7.8Q6.02 7.4 5.14 7.04Q4.27 6.68 3.67 6.36Q3.08 6.03 2.71 5.66Q2.39 5.35 2.24 4.97Q2.21 4.91 2.19 4.84Q2.03 4.39 2.03 3.79Q2.03 3.28 2.2 2.86Q2.32 2.55 2.52 2.3Q2.6 2.22 2.68 2.14Q2.99 1.84 3.44 1.68Q3.9 1.52 4.47 1.52Q5.11 1.52 5.54 1.74Q5.94 1.95 6.19 2.27Q6.21 2.3 6.23 2.32Q6.27 2.38 6.31 2.44Q6.51 2.75 6.61 3.13Q6.66 3.35 6.69 3.56Q6.72 3.81 6.72 4.06Q7.44 4.06 7.87 3.73Q7.98 3.64 8.07 3.53Q8.29 3.23 8.29 2.76Q8.29 2.65 8.28 2.55Q8.23 2.22 8.04 1.91Q7.79 1.51 7.32 1.2Q6.84 0.88 6.14 0.7Q5.45 0.51 4.55 0.51Q3.6 0.51 2.8 0.76Q2 1 1.42 1.46Q1.13 1.69 0.91 1.97Q0.67 2.26 0.5 2.6Q0.18 3.28 0.18 4.14Q0.18 4.96 0.4 5.61Q0.49 5.87 0.61 6.1Q0.8 6.47 1.08 6.8Q1.54 7.33 2.24 7.76Q2.93 8.2 3.86 8.58Q4.74 8.94 5.33 9.27Q5.92 9.59 6.28 9.95Q6.64 10.31 6.8 10.73Q6.95 11.15 6.95 11.69Q6.95 12.64 6.5 13.24Q6.37 13.42 6.2 13.56Q5.44 14.21 4.09 14.21Q3.39 14.21 2.89 13.95Q2.56 13.77 2.31 13.52Q2.18 13.39 2.07 13.25Q1.75 12.81 1.59 12.23Q1.43 11.66 1.4 11.03Q0.76 11.03 0.39 11.35Q0.36 11.37 0.33 11.4Q0.22 11.5 0.15 11.62Q-0.05 11.94 -0.05 12.38Q-0.05 12.91 0.14 13.37Q0.17 13.45 0.21 13.53Q0.26 13.64 0.33 13.74Q0.57 14.13 0.96 14.41Q1.47 14.78 2.21 14.99ZM32.53 13.81Q33.73 12.44 33.73 9.61Q33.73 8.21 33.41 7.17Q33.09 6.13 32.49 5.44Q32.22 5.13 31.89 4.89Q31.5 4.6 31.03 4.41Q30.17 4.08 29.09 4.08Q27.15 4.08 26 5.03Q25.77 5.22 25.58 5.44Q24.39 6.81 24.39 9.61Q24.39 11.02 24.71 12.07Q25.03 13.12 25.63 13.81Q25.91 14.13 26.24 14.38Q26.63 14.67 27.09 14.85Q27.95 15.19 29.03 15.19Q30.92 15.19 32.06 14.27Q32.31 14.06 32.53 13.81ZM46.11 12.11Q46.37 11.06 46.37 9.61Q46.37 8.18 46.11 7.13Q45.84 6.09 45.32 5.41Q45 4.99 44.59 4.71Q44.33 4.53 44.04 4.4Q43.28 4.08 42.29 4.08Q41.71 4.08 41.24 4.22Q40.77 4.36 40.4 4.62Q40.33 4.66 40.27 4.71Q39.98 4.94 39.74 5.25Q39.46 5.62 39.24 6.08L39.16 6.08L38.95 4.27L35.46 4.27L35.46 5.11L35.71 5.11Q36.04 5.11 36.34 5.16Q36.64 5.21 36.86 5.36Q36.89 5.37 36.92 5.4Q37.1 5.54 37.22 5.77Q37.35 6.04 37.35 6.48L37.35 17.51Q37.35 17.98 37.22 18.27Q37.09 18.56 36.87 18.71Q36.65 18.86 36.35 18.91Q36.05 18.96 35.71 18.96L35.55 18.96L35.55 19.8L40.93 19.8L40.93 18.96L40.88 18.96Q40.54 18.96 40.25 18.92Q39.95 18.87 39.72 18.73Q39.7 18.71 39.67 18.7Q39.48 18.56 39.37 18.32Q39.24 18.05 39.24 17.61L39.24 15.7Q39.24 15.62 39.23 15.48Q39.23 15.34 39.22 15.16Q39.22 14.99 39.21 14.79Q39.21 14.58 39.2 14.4Q39.18 13.95 39.16 13.43L39.24 13.43Q39.45 13.82 39.74 14.15Q39.79 14.21 39.85 14.27Q40.1 14.51 40.4 14.7Q40.78 14.94 41.25 15.06Q41.72 15.19 42.29 15.19Q43.28 15.19 44.04 14.86Q44.32 14.74 44.57 14.57Q44.99 14.28 45.32 13.85Q45.84 13.17 46.11 12.11ZM26.47 11.58Q26.33 10.73 26.33 9.61Q26.33 8.5 26.47 7.66Q26.62 6.82 26.94 6.26Q27.2 5.81 27.59 5.53Q27.68 5.47 27.78 5.41Q28.3 5.13 29.05 5.13Q29.8 5.13 30.33 5.41Q30.44 5.48 30.54 5.55Q30.92 5.82 31.17 6.26Q31.49 6.82 31.64 7.66Q31.79 8.5 31.79 9.61Q31.79 10.73 31.64 11.58Q31.5 12.43 31.18 13Q30.91 13.47 30.51 13.76Q30.43 13.81 30.34 13.86Q29.82 14.16 29.07 14.16Q28.32 14.16 27.8 13.86Q27.7 13.81 27.62 13.75Q27.22 13.47 26.95 13Q26.62 12.43 26.47 11.58ZM40.65 5.62Q41.17 5.36 41.95 5.36Q42.61 5.36 43.09 5.62Q43.15 5.66 43.21 5.7Q43.6 5.96 43.86 6.41Q44.16 6.94 44.29 7.73Q44.43 8.53 44.43 9.59Q44.43 10.65 44.29 11.46Q44.16 12.26 43.86 12.81Q43.57 13.34 43.12 13.62Q43.11 13.63 43.1 13.63Q42.63 13.91 41.97 13.91Q41.18 13.91 40.66 13.63Q40.51 13.55 40.38 13.45Q40.04 13.2 39.82 12.81Q39.5 12.26 39.37 11.46Q39.24 10.66 39.24 9.61Q39.24 8.53 39.37 7.73Q39.5 6.93 39.81 6.4Q40.02 6.06 40.31 5.83Q40.47 5.7 40.65 5.62Z" fill="#2A1804" fill-opacity="1.000000" fill-rule="evenodd"/>
</svg>
