<svg width="62.000000" height="16.000000" viewBox="0 0 62 16" fill="none" xmlns="http://www.w3.org/2000/svg" xmlns:xlink="http://www.w3.org/1999/xlink">
	<desc>
			Created with Pixso.
	</desc>
	<defs/>
	<path id="About" d="M26.62 11.97Q26.9 10.86 26.9 9.35Q26.9 7.84 26.62 6.74Q26.34 5.64 25.79 4.93Q25.46 4.49 25.03 4.2Q24.76 4.01 24.45 3.87Q23.65 3.53 22.62 3.53Q22 3.53 21.51 3.68Q21.02 3.83 20.63 4.1Q20.56 4.15 20.49 4.2Q20.19 4.44 19.94 4.76Q19.64 5.15 19.41 5.63L19.32 5.63Q19.35 5.11 19.37 4.62Q19.39 4.19 19.4 3.72Q19.41 3.25 19.41 2.9L19.41 -0.96L15.54 -0.96L15.54 -0.08L15.71 -0.08Q16.05 -0.08 16.37 -0.03Q16.68 0.01 16.92 0.17Q16.94 0.19 16.97 0.21Q17.17 0.36 17.29 0.6Q17.43 0.89 17.43 1.35L17.43 12.61Q17.43 13.1 17.29 13.4Q17.15 13.69 16.92 13.85Q16.69 14.01 16.38 14.06Q16.06 14.11 15.71 14.11L15.54 14.11L15.54 15L18.9 15L19.27 13.35L19.41 13.35Q19.63 13.76 19.93 14.1Q19.99 14.17 20.06 14.23Q20.31 14.49 20.63 14.69Q21.03 14.93 21.52 15.07Q22.01 15.2 22.62 15.2Q23.65 15.2 24.45 14.86Q24.75 14.73 25.01 14.55Q25.45 14.25 25.79 13.8Q26.34 13.08 26.62 11.97ZM3.44 12.19L4.24 9.98L9.76 9.98L10.6 12.33Q10.68 12.56 10.73 12.75Q10.77 12.93 10.77 13.11Q10.77 13.5 10.58 13.74Q10.28 14.11 9.51 14.11L9.03 14.11L9.03 15L14.8 15L14.8 14.11L14.52 14.11Q14.22 14.11 13.99 14.06Q13.79 14.02 13.63 13.91Q13.61 13.9 13.59 13.88Q13.42 13.75 13.29 13.54Q13.16 13.32 13.04 13L8.29 0L6.65 0L1.99 12.47Q1.8 12.98 1.64 13.29Q1.48 13.61 1.31 13.8Q1.14 13.97 0.94 14.04Q0.93 14.04 0.92 14.05Q0.7 14.11 0.39 14.11L0 14.11L0 15L5.12 15L5.12 14.11L4.64 14.11Q3.93 14.11 3.59 13.87Q3.51 13.81 3.45 13.73Q3.25 13.5 3.25 13.09Q3.25 12.91 3.3 12.67Q3.35 12.43 3.44 12.19ZM60.85 14.05Q60.53 14.09 60.15 14.09Q59.69 14.09 59.35 13.89Q59.15 13.78 58.99 13.59Q58.55 13.09 58.55 12.01L58.55 4.94L61.3 4.94L61.3 3.74L58.55 3.74L58.55 1.15L57.59 1.15Q57.42 1.96 57.2 2.5Q56.98 3.04 56.62 3.43Q56.39 3.67 56.1 3.82Q55.97 3.89 55.82 3.94Q55.36 4.1 54.98 4.1L54.98 4.94L56.58 4.94L56.58 11.95Q56.58 12.85 56.76 13.48Q56.94 14.1 57.31 14.48Q57.33 14.5 57.34 14.52Q57.7 14.87 58.25 15.03Q58.83 15.2 59.63 15.2Q59.87 15.2 60.15 15.17Q60.43 15.15 60.68 15.1Q60.93 15.06 61.14 15Q61.36 14.93 61.49 14.87L61.49 13.95Q61.16 14.01 60.85 14.05ZM7.48 3.51Q7.75 4.32 8.08 5.25L9.38 8.92L4.64 8.92L6.07 5.06Q6.25 4.57 6.39 4.16Q6.54 3.76 6.65 3.39Q6.76 3.02 6.86 2.66Q6.96 2.31 7.03 1.93Q7.2 2.69 7.48 3.51ZM38.12 13.75Q39.37 12.31 39.37 9.35Q39.37 7.87 39.04 6.78Q38.71 5.68 38.08 4.96Q37.79 4.63 37.45 4.38Q37.03 4.08 36.54 3.88Q35.64 3.53 34.5 3.53Q32.46 3.53 31.26 4.53Q31.02 4.73 30.82 4.97Q29.57 6.4 29.57 9.35Q29.57 10.82 29.9 11.92Q30.24 13.03 30.87 13.75Q31.16 14.09 31.51 14.35Q31.92 14.65 32.4 14.84Q33.3 15.2 34.44 15.2Q36.42 15.2 37.62 14.23Q37.89 14.02 38.12 13.75ZM52.09 13.45Q51.95 13.17 51.95 12.71L51.95 3.74L48.2 3.74L48.2 4.62L48.26 4.62Q48.62 4.62 48.94 4.67Q49.25 4.72 49.48 4.88Q49.71 5.04 49.85 5.34Q49.99 5.64 49.99 6.14L49.99 10.46Q49.99 11.22 49.83 11.85Q49.68 12.47 49.36 12.92Q49.2 13.13 49.02 13.29Q48.8 13.48 48.54 13.61Q48.04 13.86 47.34 13.86Q46.7 13.86 46.28 13.67Q46.01 13.55 45.81 13.35Q45.69 13.24 45.6 13.11Q45.35 12.74 45.24 12.21Q45.14 11.67 45.14 10.99L45.14 3.74L41.37 3.74L41.37 4.62L41.43 4.62Q41.78 4.62 42.1 4.67Q42.41 4.72 42.64 4.87Q42.67 4.89 42.7 4.92Q42.9 5.06 43.02 5.31Q43.16 5.59 43.16 6.05L43.16 11.09Q43.16 12.16 43.39 12.94Q43.62 13.72 44.06 14.23Q44.23 14.42 44.43 14.57Q44.75 14.82 45.15 14.96Q45.79 15.2 46.62 15.2Q47.14 15.2 47.61 15.12Q47.83 15.09 48.04 15.02Q48.28 14.95 48.51 14.84Q48.94 14.63 49.32 14.26Q49.71 13.89 50.03 13.29L50.13 13.29L50.41 15L53.74 15L53.74 14.11L53.68 14.11Q53.33 14.11 53.02 14.07Q52.7 14.02 52.47 13.88Q52.44 13.86 52.42 13.84Q52.22 13.7 52.09 13.45ZM31.75 11.41Q31.6 10.51 31.6 9.35Q31.6 8.18 31.75 7.29Q31.91 6.41 32.25 5.82Q32.52 5.35 32.93 5.06Q33.02 4.99 33.13 4.94Q33.67 4.64 34.46 4.64Q35.25 4.64 35.8 4.94Q35.92 5 36.03 5.08Q36.42 5.36 36.69 5.82Q37.02 6.41 37.18 7.29Q37.33 8.18 37.33 9.35Q37.33 10.51 37.18 11.41Q37.03 12.3 36.7 12.9Q36.41 13.4 35.99 13.69Q35.91 13.75 35.81 13.81Q35.27 14.11 34.48 14.11Q33.69 14.11 33.14 13.81Q33.05 13.75 32.95 13.69Q32.53 13.39 32.25 12.9Q31.91 12.3 31.75 11.41ZM20.89 5.15Q21.44 4.87 22.26 4.87Q22.95 4.87 23.45 5.15Q23.52 5.19 23.58 5.23Q23.99 5.5 24.26 5.98Q24.57 6.54 24.72 7.37Q24.86 8.21 24.86 9.32Q24.86 10.43 24.72 11.28Q24.57 12.12 24.26 12.7Q23.96 13.26 23.48 13.55Q23.47 13.56 23.46 13.56Q22.98 13.86 22.28 13.86Q21.45 13.86 20.9 13.56Q20.74 13.48 20.6 13.38Q20.26 13.11 20.02 12.7Q19.68 12.12 19.55 11.28Q19.41 10.44 19.41 9.35Q19.41 8.21 19.55 7.37Q19.68 6.53 20.01 5.97Q20.23 5.61 20.54 5.37Q20.7 5.24 20.89 5.15Z" fill="#2A1804" fill-opacity="1.000000" fill-rule="evenodd"/>
</svg>
