<svg width="100.000000" height="16.000000" viewBox="0 0 100 16" fill="none" xmlns="http://www.w3.org/2000/svg" xmlns:xlink="http://www.w3.org/1999/xlink">
	<desc>
			Created with Pixso.
	</desc>
	<defs/>
	<path id="Book Tour" d="M45.68 12.51L43.01 8.56L44.42 6.98Q45.2 6.09 45.87 5.6Q46.49 5.15 47.14 5.11Q47.18 5.11 47.23 5.11L47.23 4.27L42.82 4.27L42.82 5.11Q43.32 5.11 43.56 5.19Q43.67 5.22 43.73 5.3Q43.8 5.38 43.8 5.51Q43.8 5.66 43.75 5.82Q43.7 5.98 43.57 6.19Q43.44 6.39 43.23 6.66Q43.02 6.94 42.7 7.3L40.2 10.03Q40.22 9.52 40.24 9.05Q40.26 8.64 40.27 8.21Q40.28 7.79 40.28 7.51L40.28 -0.2L36.6 -0.2L36.6 0.64L36.75 0.64Q37.09 0.64 37.38 0.68Q37.68 0.73 37.91 0.87Q37.94 0.89 37.96 0.91Q38.15 1.05 38.26 1.29Q38.4 1.56 38.4 2L38.4 12.72Q38.4 13.19 38.26 13.47Q38.13 13.75 37.91 13.91Q37.69 14.06 37.39 14.11Q37.1 14.16 36.75 14.16L36.6 14.16L36.6 15L41.98 15L41.98 14.16L41.92 14.16Q41.59 14.16 41.29 14.11Q40.99 14.07 40.77 13.93Q40.74 13.92 40.72 13.9Q40.53 13.76 40.41 13.53Q40.28 13.26 40.28 12.82L40.28 11.01L41.75 9.92L43.76 13.05Q44.18 13.72 44.52 14.1Q44.86 14.49 45.27 14.69Q45.68 14.89 46.24 14.94Q46.8 15 47.67 15L47.96 15L47.96 14.16L47.9 14.16Q47.54 14.16 47.22 14.03Q46.95 13.93 46.71 13.74Q46.2 13.32 45.68 12.51ZM10.06 5.47Q10.25 4.97 10.25 4.29Q10.25 2.99 9.63 2.18Q9.36 1.84 8.99 1.58Q7.72 0.72 5.12 0.72L-0.24 0.72L-0.24 1.56L0.01 1.56Q0.34 1.56 0.64 1.6Q0.94 1.65 1.16 1.79Q1.19 1.81 1.22 1.83Q1.4 1.97 1.52 2.21Q1.65 2.48 1.65 2.91L1.65 12.72Q1.65 13.19 1.52 13.47Q1.41 13.73 1.21 13.88Q1.19 13.9 1.17 13.91Q0.95 14.06 0.65 14.11Q0.35 14.16 0.01 14.16L-0.24 14.16L-0.24 15L5.71 15Q8.31 15 9.58 14.03Q9.92 13.78 10.16 13.46Q10.85 12.56 10.85 11.14Q10.85 10.35 10.63 9.73Q10.4 9.11 10 8.65Q9.91 8.55 9.81 8.46Q9.46 8.13 9.02 7.91Q8.46 7.63 7.77 7.51L7.77 7.44Q8.3 7.26 8.76 7Q9.12 6.79 9.4 6.51Q9.48 6.44 9.54 6.36Q9.87 5.98 10.06 5.47ZM61.1 13.47Q60.97 13.19 60.97 12.72L60.97 1.71L62.91 1.71Q63.36 1.71 63.67 1.85Q63.97 1.98 64.15 2.2Q64.34 2.43 64.44 2.72Q64.54 3.02 64.57 3.35L64.67 4.21L65.71 4.21L65.61 0.72L54.35 0.72L54.25 4.21L55.29 4.21L55.39 3.35Q55.43 3.02 55.53 2.72Q55.61 2.47 55.76 2.27Q55.78 2.23 55.81 2.2Q55.81 2.2 55.82 2.19Q56.01 1.97 56.3 1.85Q56.6 1.71 57.04 1.71L58.95 1.71L58.95 12.82Q58.95 13.26 58.82 13.53Q58.7 13.76 58.51 13.9Q58.49 13.92 58.46 13.93Q58.24 14.07 57.94 14.11Q57.64 14.16 57.31 14.16L56.85 14.16L56.85 15L63.07 15L63.07 14.16L62.61 14.16Q62.28 14.16 61.98 14.11Q61.67 14.06 61.45 13.91Q61.23 13.75 61.1 13.47ZM5.06 7.02L3.67 7.02L3.67 1.71L5.01 1.71Q5.86 1.71 6.45 1.84Q7.04 1.97 7.41 2.27Q7.5 2.34 7.58 2.42Q7.82 2.69 7.95 3.07Q8.12 3.56 8.12 4.29Q8.12 5.01 7.96 5.53Q7.83 5.99 7.53 6.31Q7.5 6.34 7.46 6.38Q7.11 6.7 6.52 6.86Q5.94 7.02 5.06 7.02ZM21.67 13.81Q22.87 12.44 22.87 9.61Q22.87 8.21 22.55 7.17Q22.24 6.13 21.64 5.44Q21.36 5.13 21.04 4.89Q20.64 4.6 20.18 4.41Q19.32 4.08 18.23 4.08Q16.29 4.08 15.14 5.03Q14.92 5.22 14.72 5.44Q13.53 6.81 13.53 9.61Q13.53 11.02 13.85 12.07Q14.17 13.12 14.77 13.81Q15.05 14.13 15.38 14.38Q15.77 14.67 16.23 14.85Q17.09 15.19 18.17 15.19Q20.06 15.19 21.2 14.27Q21.46 14.06 21.67 13.81ZM33.58 13.81Q34.77 12.44 34.77 9.61Q34.77 8.21 34.46 7.17Q34.14 6.13 33.54 5.44Q33.27 5.13 32.94 4.89Q32.55 4.6 32.08 4.41Q31.22 4.08 30.13 4.08Q28.19 4.08 27.04 5.03Q26.82 5.22 26.62 5.44Q25.44 6.81 25.44 9.61Q25.44 11.02 25.76 12.07Q26.07 13.12 26.67 13.81Q26.95 14.13 27.29 14.38Q27.67 14.67 28.13 14.85Q28.99 15.19 30.08 15.19Q31.96 15.19 33.1 14.27Q33.36 14.06 33.58 13.81ZM75.12 13.81Q76.31 12.44 76.31 9.61Q76.31 8.21 75.99 7.17Q75.68 6.13 75.08 5.44Q74.8 5.13 74.48 4.89Q74.08 4.6 73.62 4.41Q72.76 4.08 71.67 4.08Q69.73 4.08 68.58 5.03Q68.36 5.22 68.16 5.44Q66.98 6.81 66.98 9.61Q66.98 11.02 67.29 12.07Q67.61 13.12 68.21 13.81Q68.49 14.13 68.82 14.38Q69.21 14.67 69.67 14.85Q70.53 15.19 71.61 15.19Q73.5 15.19 74.64 14.27Q74.9 14.06 75.12 13.81ZM91.49 15L97.27 15L97.27 14.16L96.71 14.16Q96.38 14.16 96.08 14.11Q95.78 14.07 95.56 13.93Q95.53 13.92 95.51 13.9Q95.32 13.76 95.2 13.53Q95.07 13.26 95.07 12.82L95.07 9.67Q95.07 9.29 95.11 8.82Q95.15 8.35 95.24 7.88Q95.33 7.41 95.48 6.96Q95.63 6.51 95.85 6.16Q96.07 5.82 96.37 5.61Q96.49 5.52 96.63 5.47Q96.82 5.4 97.03 5.4Q97.5 5.4 97.74 5.63Q97.8 5.69 97.85 5.76Q98.09 6.13 98.09 6.96Q98.59 6.96 98.95 6.86Q99.3 6.75 99.52 6.56Q99.67 6.44 99.77 6.28Q99.81 6.2 99.85 6.11Q99.95 5.84 99.95 5.53Q99.95 5.14 99.78 4.84Q99.65 4.62 99.42 4.46Q98.89 4.08 97.79 4.08Q97.13 4.08 96.69 4.25Q96.25 4.42 95.95 4.72Q95.65 5.01 95.45 5.41Q95.24 5.81 95.05 6.25L94.95 6.25L94.57 4.27L91.49 4.27L91.49 5.11L91.55 5.11Q91.88 5.11 92.18 5.16Q92.48 5.21 92.71 5.36Q92.73 5.37 92.76 5.4Q92.95 5.54 93.06 5.77Q93.19 6.04 93.19 6.48L93.19 12.72Q93.19 13.19 93.06 13.47Q92.93 13.75 92.71 13.91Q92.49 14.06 92.19 14.11Q91.89 14.16 91.55 14.16L91.49 14.16L91.49 15ZM88.44 13.53Q88.31 13.26 88.31 12.82L88.31 4.27L84.74 4.27L84.74 5.11L84.8 5.11Q85.14 5.11 85.44 5.16Q85.73 5.21 85.95 5.36Q86.17 5.51 86.31 5.8Q86.44 6.09 86.44 6.56L86.44 10.68Q86.44 11.4 86.29 12Q86.14 12.59 85.84 13.02Q85.69 13.22 85.51 13.37Q85.31 13.55 85.06 13.68Q84.58 13.91 83.92 13.91Q83.31 13.91 82.91 13.73Q82.65 13.61 82.46 13.43Q82.35 13.32 82.26 13.2Q82.02 12.85 81.92 12.34Q81.82 11.83 81.82 11.18L81.82 4.27L78.23 4.27L78.23 5.11L78.29 5.11Q78.62 5.11 78.92 5.16Q79.22 5.21 79.44 5.36Q79.47 5.37 79.5 5.4Q79.69 5.54 79.8 5.77Q79.93 6.04 79.93 6.48L79.93 11.27Q79.93 12.3 80.15 13.04Q80.37 13.78 80.79 14.26Q80.95 14.45 81.14 14.59Q81.45 14.83 81.83 14.97Q82.44 15.19 83.23 15.19Q83.72 15.19 84.17 15.12Q84.38 15.08 84.58 15.02Q84.81 14.95 85.03 14.84Q85.44 14.64 85.81 14.29Q86.17 13.94 86.48 13.37L86.57 13.37L86.84 15L90.01 15L90.01 14.16L89.95 14.16Q89.62 14.16 89.32 14.11Q89.02 14.07 88.8 13.93Q88.78 13.92 88.75 13.9Q88.56 13.76 88.44 13.53ZM15.61 11.58Q15.47 10.73 15.47 9.61Q15.47 8.5 15.61 7.66Q15.76 6.82 16.08 6.26Q16.34 5.81 16.73 5.53Q16.82 5.47 16.92 5.41Q17.44 5.13 18.19 5.13Q18.94 5.13 19.47 5.41Q19.58 5.48 19.69 5.55Q20.06 5.82 20.31 6.26Q20.63 6.82 20.78 7.66Q20.93 8.5 20.93 9.61Q20.93 10.73 20.79 11.58Q20.64 12.43 20.32 13Q20.05 13.47 19.65 13.76Q19.57 13.81 19.48 13.86Q18.96 14.16 18.21 14.16Q17.46 14.16 16.94 13.86Q16.85 13.81 16.76 13.75Q16.36 13.47 16.09 13Q15.76 12.43 15.61 11.58ZM27.52 11.58Q27.37 10.73 27.37 9.61Q27.37 8.5 27.52 7.66Q27.66 6.82 27.99 6.26Q28.25 5.81 28.63 5.53Q28.73 5.47 28.83 5.41Q29.34 5.13 30.1 5.13Q30.85 5.13 31.37 5.41Q31.48 5.48 31.59 5.55Q31.96 5.82 32.22 6.26Q32.54 6.82 32.68 7.66Q32.83 8.5 32.83 9.61Q32.83 10.73 32.69 11.58Q32.55 12.43 32.22 13Q31.96 13.47 31.55 13.76Q31.47 13.81 31.38 13.86Q30.87 14.16 30.12 14.16Q29.36 14.16 28.84 13.86Q28.75 13.81 28.66 13.75Q28.26 13.47 27.99 13Q27.66 12.43 27.52 11.58ZM69.06 11.58Q68.91 10.73 68.91 9.61Q68.91 8.5 69.06 7.66Q69.2 6.82 69.52 6.26Q69.78 5.81 70.17 5.53Q70.26 5.47 70.36 5.41Q70.88 5.13 71.63 5.13Q72.39 5.13 72.91 5.41Q73.02 5.48 73.13 5.55Q73.5 5.82 73.75 6.26Q74.07 6.82 74.22 7.66Q74.37 8.5 74.37 9.61Q74.37 10.73 74.23 11.58Q74.08 12.43 73.76 13Q73.49 13.47 73.09 13.76Q73.01 13.81 72.92 13.86Q72.41 14.16 71.65 14.16Q70.9 14.16 70.38 13.86Q70.29 13.81 70.2 13.75Q69.8 13.47 69.53 13Q69.2 12.43 69.06 11.58ZM5.62 14L3.67 14L3.67 8.01L5.66 8.01Q6.53 8.01 7.12 8.2Q7.71 8.38 8.06 8.76Q8.06 8.77 8.07 8.77Q8.42 9.15 8.57 9.72Q8.71 10.3 8.71 11.08Q8.71 11.88 8.55 12.44Q8.39 12.97 8.04 13.31Q8.02 13.33 8.01 13.34Q7.64 13.69 7.05 13.84Q6.47 14 5.62 14Z" fill="#2A1804" fill-opacity="1.000000" fill-rule="evenodd"/>
</svg>
