<svg width="1140.000000" height="162.000000" viewBox="0 0 1140 162" fill="none" xmlns="http://www.w3.org/2000/svg" xmlns:xlink="http://www.w3.org/1999/xlink">
	<desc>
			Created with Pixso.
	</desc>
	<defs>
		<clipPath id="clip2_1">
			<rect id="IMAGE" width="1140.000000" height="162.000000" fill="white" fill-opacity="0"/>
		</clipPath>
	</defs>
	<g clip-path="url(#clip2_1)">
		<path id="Vector" d="M29.39 116.09L29.39 0.33L0.65 0.33L0.65 142L82.01 142L82.01 116.09L29.39 116.09Z" fill="#2A1804" fill-opacity="1.000000" fill-rule="nonzero"/>
		<path id="Vector" d="M99.4 34.33L128.54 34.33L128.54 10.45L99.4 10.45L99.4 34.33ZM100.61 142L127.33 142L127.33 44.45L100.61 44.45L100.61 142Z" fill="#2A1804" fill-opacity="1.000000" fill-rule="nonzero"/>
		<path id="Vector" d="M195.12 120.14C189.25 120.14 185.61 117.1 185.61 110.83L185.61 65.9L205.03 65.9L205.03 44.45L185.61 44.45L185.61 22.18L158.89 22.18L158.89 44.45L145.53 44.45L145.53 65.9L158.89 65.9L158.89 109.61C158.89 131.88 167.39 143.61 188.64 143.61C197.34 143.61 203.01 142.81 209.69 141.39L209.69 117.71C206.45 118.92 200.78 120.14 195.12 120.14Z" fill="#2A1804" fill-opacity="1.000000" fill-rule="nonzero"/>
		<path id="Vector" d="M270.42 120.14C264.55 120.14 260.91 117.1 260.91 110.83L260.91 65.9L280.34 65.9L280.34 44.45L260.91 44.45L260.91 22.18L234.19 22.18L234.19 44.45L220.84 44.45L220.84 65.9L234.19 65.9L234.19 109.61C234.19 131.88 242.69 143.61 263.94 143.61C272.65 143.61 278.31 142.81 284.99 141.39L284.99 117.71C281.75 118.92 276.09 120.14 270.42 120.14Z" fill="#2A1804" fill-opacity="1.000000" fill-rule="nonzero"/>
		<path id="Vector" d="M302.21 142L328.92 142L328.92 0.33L302.21 0.33L302.21 142Z" fill="#2A1804" fill-opacity="1.000000" fill-rule="nonzero"/>
		<path id="Vector" d="M414.32 109.21C410.68 116.09 405.62 120.75 395.09 120.75C383.56 120.75 375.06 112.85 373.24 98.48L439.82 98.48L439.82 88.77C439.82 56.79 420.8 42.83 394.69 42.83C369.19 42.83 347.53 62.05 347.53 93.22C347.53 126.41 369.19 143.61 395.09 143.61C418.37 143.61 435.77 131.88 440.22 109.21L414.32 109.21ZM394.69 65.09C405.62 65.09 412.7 70.55 413.91 80.07L375.06 80.07C378.5 70.55 385.78 65.09 394.69 65.09Z" fill="#2A1804" fill-opacity="1.000000" fill-rule="nonzero"/>
		<path id="Vector" d="M595 26.23L595 0.33L517.68 0.33L517.68 142L546.42 142L546.42 74.8L589.53 74.8L589.53 48.9L546.42 48.9L546.42 26.23L595 26.23Z" fill="#2A1804" fill-opacity="1.000000" fill-rule="nonzero"/>
		<path id="Vector" d="M645.37 42.83C623.71 42.83 605.9 53.76 605.09 72.78L628.97 72.78C630.19 66.51 636.26 62.66 645.37 62.66C655.49 62.66 660.75 67.11 660.75 75.41L660.75 84.72L644.15 84.72C622.9 84.72 604.49 91.6 604.49 114.27C604.49 134.71 618.25 143.61 635.65 143.61C647.59 143.61 655.08 139.77 660.75 131.27L661.56 131.27L661.56 142L686.25 142L686.25 74.6C686.25 52.74 670.87 42.83 645.37 42.83ZM642.33 122.57C635.05 122.57 629.78 120.14 629.78 113.26C629.78 106.38 635.65 102.94 645.37 102.94L660.75 102.94L660.75 107.99C660.75 117.71 651.64 122.57 642.33 122.57Z" fill="#2A1804" fill-opacity="1.000000" fill-rule="nonzero"/>
		<path id="Vector" d="M750.09 120.14C744.23 120.14 740.58 117.1 740.58 110.83L740.58 65.9L760.01 65.9L760.01 44.45L740.58 44.45L740.58 22.18L713.87 22.18L713.87 44.45L700.51 44.45L700.51 65.9L713.87 65.9L713.87 109.61C713.87 131.88 722.37 143.61 743.62 143.61C752.32 143.61 757.99 142.81 764.67 141.39L764.67 117.71C761.43 118.92 755.76 120.14 750.09 120.14Z" fill="#2A1804" fill-opacity="1.000000" fill-rule="nonzero"/>
		<path id="Vector" d="M840.63 142L886.17 142C909.04 142 930.89 127.02 930.89 98.89C930.89 81.48 923.61 69.14 910.66 63.27L910.66 62.46C917.94 58.41 925.63 49.51 925.63 35.14C925.63 12.06 910.25 0.33 885.15 0.33L840.63 0.33L840.63 142ZM869.37 51.73L869.37 25.42L884.14 25.42C891.43 25.42 896.89 29.06 896.89 38.58C896.89 48.49 891.43 51.73 884.14 51.73L869.37 51.73ZM869.37 116.9L869.37 75.21L883.74 75.21C894.87 75.21 902.15 81.89 902.15 96.05C902.15 110.22 894.87 116.9 883.74 116.9L869.37 116.9Z" fill="#2A1804" fill-opacity="1.000000" fill-rule="nonzero"/>
		<path id="Vector" d="M993.15 143.61C1019.06 143.61 1040.31 126.41 1040.31 93.22C1040.31 60.03 1019.06 42.83 993.15 42.83C967.24 42.83 945.99 60.03 945.99 93.22C945.99 126.41 967.24 143.61 993.15 143.61ZM993.15 119.73C981.81 119.73 973.51 110.83 973.51 93.22C973.51 75.61 981.81 66.71 993.15 66.71C1004.48 66.71 1012.78 75.61 1012.78 93.22C1012.78 110.83 1004.48 119.73 993.15 119.73Z" fill="#2A1804" fill-opacity="1.000000" fill-rule="nonzero"/>
		<path id="Vector" d="M1112.31 44.45L1092.68 97.67L1071.64 44.45L1044.31 44.45L1080.74 129.85C1078.31 135.52 1075.68 137.54 1069.41 137.54C1064.55 137.54 1060.1 136.94 1056.05 135.92L1056.05 159.81C1061.11 160.61 1065.16 161.02 1070.42 161.02C1084.99 161.02 1094.71 156.16 1102 137.95L1139.43 44.45L1112.31 44.45Z" fill="#2A1804" fill-opacity="1.000000" fill-rule="nonzero"/>
	</g>
</svg>
