<svg width="62.000000" height="15.000000" viewBox="0 0 62 15" fill="none" xmlns="http://www.w3.org/2000/svg" xmlns:xlink="http://www.w3.org/1999/xlink">
	<desc>
			Created with Pixso.
	</desc>
	<defs/>
	<path id="Search" d="M55.75 14L55.75 13.2L55.7 13.2Q55.38 13.2 55.1 13.16Q54.82 13.11 54.6 12.98Q54.58 12.97 54.56 12.95Q54.38 12.83 54.27 12.6Q54.14 12.34 54.14 11.93L54.14 7.92Q54.14 7.22 54.28 6.65Q54.42 6.08 54.7 5.68Q54.87 5.44 55.08 5.27Q55.24 5.15 55.42 5.06Q55.85 4.84 56.44 4.84Q57.02 4.84 57.41 5.01Q57.68 5.12 57.88 5.31Q57.98 5.4 58.06 5.52Q58.31 5.85 58.42 6.33Q58.53 6.81 58.53 7.44L58.53 14L61.83 14L61.83 13.2L61.78 13.2Q61.46 13.2 61.19 13.15Q60.92 13.1 60.73 12.96Q60.53 12.82 60.42 12.55Q60.31 12.28 60.31 11.83L60.31 7.34Q60.31 6.37 60.09 5.66Q59.86 4.96 59.44 4.51Q59.35 4.42 59.25 4.33Q58.88 4.01 58.38 3.84Q57.76 3.62 56.95 3.62Q55.97 3.62 55.27 4.07Q54.58 4.5 54.16 5.35L54.07 5.35Q54.08 5.08 54.1 4.8Q54.12 4.56 54.13 4.28Q54.14 3.99 54.14 3.73L54.14 -0.44L50.64 -0.44L50.64 0.36L50.79 0.36Q51.11 0.36 51.39 0.4Q51.67 0.44 51.89 0.58Q51.91 0.6 51.94 0.62Q52.11 0.75 52.22 0.97Q52.35 1.23 52.35 1.65L52.35 11.83Q52.35 12.28 52.22 12.55Q52.1 12.82 51.89 12.96Q51.68 13.1 51.4 13.15Q51.12 13.2 50.79 13.2L50.64 13.2L50.64 14L55.75 14ZM2.05 13.99Q2.76 14.18 3.69 14.18Q4.76 14.18 5.62 13.93Q6.48 13.67 7.09 13.18Q7.41 12.92 7.65 12.61Q7.88 12.32 8.04 11.98Q8.37 11.27 8.37 10.37Q8.37 9.63 8.12 9.05Q8.07 8.92 8 8.8Q7.78 8.37 7.43 8.01Q6.97 7.54 6.32 7.16Q5.67 6.78 4.83 6.43Q4 6.1 3.44 5.79Q2.87 5.48 2.53 5.13Q2.22 4.83 2.07 4.47Q2.05 4.41 2.03 4.35Q1.88 3.92 1.88 3.35Q1.88 2.86 2.04 2.46Q2.15 2.17 2.35 1.94Q2.42 1.85 2.49 1.78Q2.79 1.5 3.22 1.35Q3.65 1.19 4.2 1.19Q4.8 1.19 5.21 1.41Q5.59 1.6 5.83 1.91Q5.85 1.93 5.87 1.96Q5.91 2.01 5.94 2.07Q6.14 2.36 6.23 2.73Q6.28 2.93 6.3 3.13Q6.33 3.37 6.33 3.6Q7.02 3.6 7.42 3.29Q7.53 3.21 7.61 3.1Q7.83 2.82 7.83 2.37Q7.83 2.27 7.81 2.17Q7.77 1.86 7.59 1.57Q7.35 1.18 6.9 0.89Q6.44 0.59 5.79 0.41Q5.13 0.24 4.27 0.24Q3.37 0.24 2.61 0.47Q1.85 0.7 1.3 1.14Q1.02 1.36 0.81 1.62Q0.59 1.89 0.43 2.22Q0.12 2.86 0.12 3.68Q0.12 4.46 0.33 5.08Q0.41 5.32 0.53 5.55Q0.71 5.9 0.98 6.21Q1.42 6.71 2.08 7.13Q2.73 7.54 3.62 7.9Q4.45 8.24 5.01 8.55Q5.57 8.86 5.92 9.2Q6.26 9.54 6.41 9.94Q6.56 10.34 6.56 10.86Q6.56 11.76 6.12 12.33Q6 12.5 5.84 12.64Q5.12 13.25 3.84 13.25Q3.17 13.25 2.7 13Q2.38 12.84 2.14 12.59Q2.02 12.47 1.92 12.33Q1.61 11.92 1.46 11.37Q1.31 10.82 1.28 10.23Q0.67 10.23 0.32 10.53Q0.29 10.55 0.26 10.58Q0.16 10.68 0.09 10.79Q-0.1 11.09 -0.1 11.51Q-0.1 12.02 0.08 12.45Q0.11 12.53 0.15 12.6Q0.2 12.7 0.26 12.8Q0.49 13.17 0.86 13.44Q1.34 13.79 2.05 13.99ZM13.29 13.83Q14.12 14.18 15.15 14.18Q15.99 14.18 16.62 14Q17.24 13.81 17.66 13.53Q18.08 13.25 18.28 12.92Q18.48 12.59 18.48 12.31Q18.48 12.09 18.39 11.93Q18.38 11.91 18.37 11.89Q18.25 11.71 18.12 11.66Q17.96 11.92 17.69 12.15Q17.43 12.39 17.08 12.58Q16.74 12.76 16.32 12.87Q15.9 12.98 15.4 12.98Q14.73 12.98 14.21 12.76Q14.06 12.69 13.92 12.6Q13.59 12.39 13.33 12.05Q12.97 11.56 12.78 10.82Q12.59 10.07 12.58 9.03L18.9 9.03L18.9 8.16Q18.9 7.04 18.63 6.19Q18.36 5.34 17.84 4.77Q17.66 4.56 17.44 4.39Q17.06 4.09 16.6 3.91Q15.87 3.62 14.95 3.62Q13.53 3.62 12.57 4.29Q12.16 4.57 11.83 4.97Q10.74 6.31 10.74 8.98Q10.74 10.21 11.04 11.18Q11.34 12.15 11.91 12.82Q12.14 13.09 12.42 13.32Q12.81 13.63 13.29 13.83ZM24.43 4.72Q24.76 4.57 25.31 4.57Q25.9 4.57 26.24 4.74Q26.49 4.86 26.66 5.06Q26.72 5.13 26.78 5.22Q26.96 5.53 27.02 5.97Q27.07 6.4 27.07 6.91L27.07 8.05L25.5 8.1Q23.32 8.17 22.24 8.9Q21.88 9.15 21.64 9.48Q21.16 10.14 21.16 11.15Q21.16 11.93 21.39 12.5Q21.61 13.07 22 13.44Q22.1 13.53 22.21 13.62Q22.53 13.86 22.94 14Q23.48 14.18 24.11 14.18Q24.71 14.18 25.13 14.05Q25.55 13.91 25.89 13.67Q26.22 13.43 26.5 13.1Q26.78 12.76 27.07 12.36L27.23 12.36L27.53 14L30.1 14L30.1 13.2L30.04 13.2Q29.73 13.2 29.5 13.13Q29.31 13.08 29.18 12.95Q29.15 12.93 29.13 12.91Q28.99 12.75 28.93 12.49Q28.86 12.23 28.86 11.83L28.86 6.91Q28.86 6 28.65 5.37Q28.43 4.76 28.02 4.38Q28 4.37 27.99 4.36Q27.56 3.97 26.91 3.79Q26.26 3.62 25.39 3.62Q24.68 3.62 24.06 3.72Q23.44 3.83 22.97 4.05Q22.5 4.26 22.23 4.61Q22.17 4.68 22.12 4.77Q21.96 5.06 21.96 5.44Q21.96 5.97 22.22 6.24Q22.29 6.31 22.37 6.37Q22.79 6.64 23.58 6.64Q23.58 6.19 23.64 5.81Q23.71 5.43 23.9 5.15Q23.93 5.1 23.97 5.06Q24.15 4.85 24.43 4.72ZM31.91 14L37.39 14L37.39 13.2L36.86 13.2Q36.54 13.2 36.26 13.16Q35.98 13.11 35.76 12.98Q35.74 12.97 35.72 12.95Q35.54 12.83 35.43 12.6Q35.3 12.34 35.3 11.93L35.3 8.94Q35.3 8.58 35.34 8.13Q35.38 7.69 35.46 7.24Q35.55 6.79 35.7 6.36Q35.84 5.93 36.05 5.6Q36.26 5.27 36.54 5.07Q36.65 4.99 36.78 4.94Q36.96 4.88 37.17 4.88Q37.61 4.88 37.84 5.1Q37.9 5.15 37.95 5.22Q38.17 5.57 38.17 6.36Q38.65 6.36 38.98 6.26Q39.32 6.16 39.53 5.98Q39.67 5.86 39.76 5.71Q39.81 5.64 39.84 5.55Q39.94 5.3 39.94 5.01Q39.94 4.63 39.78 4.35Q39.65 4.14 39.43 3.98Q38.93 3.62 37.89 3.62Q37.26 3.62 36.84 3.79Q36.42 3.95 36.14 4.23Q35.86 4.51 35.66 4.89Q35.47 5.27 35.28 5.69L35.19 5.69L34.83 3.81L31.91 3.81L31.91 4.61L31.96 4.61Q32.28 4.61 32.56 4.65Q32.84 4.7 33.06 4.84Q33.08 4.86 33.11 4.88Q33.29 5.01 33.39 5.23Q33.52 5.49 33.52 5.91L33.52 11.83Q33.52 12.28 33.39 12.55Q33.27 12.82 33.06 12.96Q32.85 13.1 32.57 13.15Q32.29 13.2 31.96 13.2L31.91 13.2L31.91 14ZM44.22 13.89Q45.02 14.18 45.97 14.18Q46.78 14.18 47.38 14.02Q47.98 13.86 48.39 13.6Q48.79 13.34 48.99 13.01Q49.2 12.69 49.2 12.36Q49.2 12.1 49.1 11.92Q49.01 11.73 48.87 11.62Q48.84 11.68 48.8 11.74Q48.48 12.24 47.89 12.58Q47.23 12.95 46.35 12.95Q45.18 12.95 44.51 12.37Q44.3 12.19 44.15 11.95Q43.47 10.96 43.47 8.94Q43.47 7.67 43.64 6.82Q43.81 5.98 44.12 5.48Q44.44 4.98 44.88 4.77Q45.32 4.57 45.87 4.57Q46.35 4.57 46.66 4.74Q46.83 4.83 46.96 4.96Q47.07 5.07 47.15 5.21Q47.33 5.52 47.41 5.91Q47.48 6.31 47.48 6.76Q48.32 6.76 48.75 6.49Q48.85 6.43 48.93 6.34Q49.18 6.07 49.18 5.56Q49.18 5.27 49.07 5.02Q49 4.85 48.88 4.7Q48.58 4.34 48.11 4.1Q47.64 3.85 47.05 3.74Q46.58 3.65 46.11 3.63Q45.99 3.62 45.87 3.62Q44.97 3.62 44.19 3.88Q43.9 3.98 43.64 4.13Q43.2 4.37 42.85 4.76Q42.28 5.39 41.96 6.41Q41.64 7.44 41.64 8.96Q41.64 10.36 41.96 11.35Q42.28 12.33 42.85 12.97Q43.15 13.29 43.51 13.53Q43.84 13.75 44.22 13.89ZM13.93 4.88Q14.35 4.64 14.91 4.64Q15.49 4.64 15.88 4.88Q15.95 4.93 16.01 4.97Q16.32 5.2 16.52 5.57Q16.76 6.02 16.87 6.64Q16.98 7.26 16.98 8.01L12.61 8.01Q12.71 6.36 13.28 5.5Q13.55 5.1 13.93 4.88ZM23.39 12.57Q23.01 12.13 23.01 11.24Q23.01 10.68 23.15 10.26Q23.23 10.02 23.37 9.82Q23.48 9.67 23.63 9.54Q23.97 9.25 24.51 9.08Q25.05 8.92 25.86 8.88L27.07 8.83L27.07 10.37Q27.07 10.97 26.9 11.46Q26.72 11.95 26.39 12.3Q26.33 12.36 26.26 12.42Q25.97 12.68 25.59 12.83Q25.13 13.01 24.55 13.01Q23.85 13.01 23.47 12.66Q23.43 12.62 23.39 12.57Z" fill="#2A1804" fill-opacity="1.000000" fill-rule="evenodd"/>
</svg>
